<svg width="76" height="130" viewBox="0 0 76 130" fill="none" xmlns="http://www.w3.org/2000/svg">
<path fill-rule="evenodd" clip-rule="evenodd" d="M50.8961 86.3056C54.1386 86.3056 56.5217 87.1871 57.89 90.2593C61.0186 97.2839 52.4238 103.263 46.809 98.0744C42.3655 93.9679 45.645 86.3056 50.8961 86.3056H50.8961ZM24.1039 72.5676C21.2606 72.5676 18.8921 70.8036 17.809 68.3809C15.5268 63.2757 19.7234 57.9423 25.4674 58.853C28.0117 59.2565 30.2879 61.5528 30.8043 64.0112C31.4046 66.8693 30.3897 69.6288 28.103 71.2089C27.0723 71.9211 25.7416 72.5676 24.1039 72.5676H24.1039ZM23.172 103.536C19.7613 103.536 18.8215 100.009 20.3355 97.9072L27.8299 87.4682C33.2292 79.8179 39.4947 71.4607 44.7451 63.8587C45.8532 62.2543 49.9455 55.8662 51.6503 55.3756C54.4082 54.5819 58.046 57.3309 54.9225 61.4567L26.2376 101.478C25.556 102.42 24.737 103.536 23.172 103.536ZM30.6272 28.3264C30.6272 25.9235 30.9958 24.2604 32.6566 22.6707C37.4154 18.1157 44.3728 22.1648 44.3728 26.9293C44.3728 30.1912 43.3626 32.6905 40.2557 33.9913C37.5426 35.1271 34.8653 34.5479 32.8971 32.8103C31.903 31.9327 30.6272 30.0732 30.6272 28.3264ZM5.00001 32.052V116.11C5.00001 118.617 7.38446 121 9.89247 121H65.1075C67.4894 121 70 118.699 70 116.343V31.8191C70 29.9652 67.299 26.7101 66.1741 25.1648C64.6692 23.0976 56.617 11.133 54.8226 9.96533C53.7453 9.26425 52.1656 9 50.4301 9H24.5699C18.6318 9 18.2375 12.3787 13.3216 18.9469C12.5147 20.0249 11.8514 20.9703 11.106 22.0881C9.61444 24.3252 5 29.6308 5 32.052L5.00001 32.052Z" fill="#0C62C4"/>
</svg>
